<svg width="100" height="100" fill="#3D4C6A" opacity="0.4" viewBox="0 0 20 20" xmlns="http://www.w3.org/2000/svg">
    <path d="M17.8791 0.278809C17.3927 0.278809 16.939 0.462715 16.6004 0.801309L16.2429 1.15881H16.2291C16.1397 1.1124 16.0383 1.09865 15.9404 1.11756C15.8561 1.13647 15.7805 1.17943 15.7204 1.24131L1.90161 15.0601C1.89645 15.0687 1.8913 15.079 1.88786 15.0876C1.85348 15.1237 1.82598 15.1649 1.80536 15.2113L0.347858 19.0888C0.28942 19.2487 0.328951 19.4291 0.450983 19.5494C0.571295 19.6715 0.751764 19.711 0.911608 19.6526L4.78911 18.1951C4.83551 18.1744 4.87676 18.1469 4.91286 18.1126C4.92145 18.1057 4.93176 18.1057 4.94036 18.0988L18.7591 4.28006C18.9069 4.12709 18.9258 3.8899 18.8004 3.71631L19.1579 3.35881C19.8643 2.65412 19.8643 1.506 19.1579 0.801309C18.8193 0.462715 18.3655 0.278809 17.8791 0.278809ZM16.0229 2.16256L17.8379 3.97756L16.3804 5.42131L14.5791 3.62006L16.0229 2.16256ZM2.54786 15.7476L2.96036 16.1601H3.84036V17.0401L4.25286 17.4526L2.12161 18.2638L1.73661 17.8788L2.54786 15.7476Z"/>
</svg>
